<svg width="16" height="16" viewBox="0 0 16 16" fill="none" xmlns="http://www.w3.org/2000/svg">
<path d="M11.4928 11.9732C11.3891 12.0769 11.2713 12.1288 11.1393 12.1288C11.0073 12.1288 10.8894 12.0769 10.7857 11.9732L8.11286 9.30034L5.49656 11.9166C5.39285 12.0203 5.275 12.0722 5.14301 12.0722C5.01101 12.0722 4.89788 12.0251 4.8036 11.9308L3.91264 11.0398C3.80893 10.9361 3.75708 10.8183 3.75708 10.6863C3.75708 10.5543 3.80893 10.4364 3.91264 10.3327L6.52894 7.71642L3.94093 5.12841C3.83722 5.0247 3.78536 4.90685 3.78536 4.77486C3.78536 4.64287 3.83722 4.52502 3.94093 4.42131L4.91673 3.4455C5.02044 3.34179 5.13829 3.28994 5.27029 3.28994C5.40228 3.28994 5.52013 3.34179 5.62384 3.4455L8.21185 6.03351L10.8281 3.41722C10.9224 3.32293 11.0356 3.27579 11.1676 3.27579C11.2996 3.27579 11.4174 3.32765 11.5211 3.43136L12.4121 4.32231C12.5063 4.41659 12.5535 4.52973 12.5535 4.66172C12.5535 4.79372 12.5063 4.90685 12.4121 5.00113L9.79577 7.61743L12.4686 10.2903C12.5723 10.394 12.6242 10.5119 12.6242 10.6438C12.6242 10.7758 12.5723 10.8937 12.4686 10.9974L11.4928 11.9732Z" fill="white"/>
</svg>
