<svg width="11" height="12" viewBox="0 0 11 12" fill="none" xmlns="http://www.w3.org/2000/svg">
<path d="M4.80672 11.34C4.66005 11.34 4.54005 11.2933 4.44672 11.2C4.35339 11.1067 4.30672 10.9867 4.30672 10.84V7.06H0.606719C0.460052 7.06 0.340052 7.01333 0.246719 6.92C0.153385 6.82667 0.106719 6.71333 0.106719 6.58V5.32C0.106719 5.17333 0.153385 5.05333 0.246719 4.96C0.340052 4.86667 0.460052 4.82 0.606719 4.82H4.30672V1.16C4.30672 1.01333 4.35339 0.893333 4.44672 0.8C4.54005 0.706666 4.66005 0.659999 4.80672 0.659999H6.18672C6.33339 0.659999 6.45339 0.706666 6.54672 0.8C6.64005 0.893333 6.68672 1.01333 6.68672 1.16V4.82H10.3867C10.5201 4.82 10.6334 4.86667 10.7267 4.96C10.8201 5.05333 10.8667 5.17333 10.8667 5.32V6.58C10.8667 6.71333 10.8201 6.82667 10.7267 6.92C10.6334 7.01333 10.5201 7.06 10.3867 7.06H6.68672V10.84C6.68672 10.9867 6.64005 11.1067 6.54672 11.2C6.45339 11.2933 6.33339 11.34 6.18672 11.34H4.80672Z" fill="white"/>
</svg>
